<?xml version="1.0" encoding="utf-8"?>
<!-- Generator: Adobe Illustrator 25.2.1, SVG Export Plug-In . SVG Version: 6.00 Build 0)  -->
<svg version="1.1" id="Layer_1" xmlns="http://www.w3.org/2000/svg" xmlns:xlink="http://www.w3.org/1999/xlink" x="0px" y="0px"
	 viewBox="0 0 200 200" style="enable-background:new 0 0 200 200;" xml:space="preserve">
<style type="text/css">
	.st0{fill-rule:evenodd;clip-rule:evenodd;fill:#EFEFEF;}
	.st1{fill-rule:evenodd;clip-rule:evenodd;fill:#FFFFFF;}
	.st2{fill-rule:evenodd;clip-rule:evenodd;fill:#CCCCCC;}
	.st3{fill:none;}
	.st4{fill:#FCDCBC;}
	.st5{fill:#EFEFEF;}
	.st6{fill:#34221D;}
	.st7{fill:#999999;}
	.st8{fill:#33AB64;}
	.st9{fill-rule:evenodd;clip-rule:evenodd;fill:#2AAE5E;}
</style>
<path class="st0" d="M192.5,107.2c0,51.1-41.4,92.5-92.5,92.5S7.5,158.3,7.5,107.2S48.9,14.7,100,14.7S192.5,56.1,192.5,107.2"/>
<g>
	<path class="st1" d="M85.8,11.3h27.4v6.8H85.8V11.3z"/>
	<path class="st2" d="M136.8,0.1H63.1c-8.8,0-16,8.1-16,16.8v61.4v20.5v4.2v18.1V183c15,10.5,33.3,16.7,53,16.7
		c19.6,0,37.8-6.1,52.8-16.6L153,16.9C152.8,8.2,145.6,0.1,136.8,0.1z M110.3,13.9c0,0.3-0.3,0.5-0.5,0.5H90.6
		c-0.3,0-0.5-0.3-0.5-0.5v-0.4c0-0.3,0.1-0.5,0.5-0.5h19.2c0.3,0,0.5,0.3,0.5,0.5V13.9z"/>
	<path class="st1" d="M144.2,178.7H55.7V24.5h88.5V178.7z"/>
	<path class="st1" d="M107.3,190.6c0,4-3.1,7.1-7,7.1c-3.8,0-7-3.1-7-7.1c0-4,3.1-7.1,7-7.1C104.1,183.6,107.3,186.8,107.3,190.6"/>
</g>
<g>
	<path class="st3" d="M55.7,178.6h14.5c-4.6-1.7-9.5-3.9-14.5-6.7V178.6z"/>
	<path class="st3" d="M79.6,142.6c0.5-0.2,0.9-0.7,0.9-1.2l0.3-12.8c0-0.5-0.2-1.1-0.5-1.6c-3.3-5.1-5.5-10.9-6.7-16.9
		c0,0-2.5,1.6-4.5-7.6c-1.9-8.9-2-13.1,1.4-12.2c-2.9-6.4-4.6-18.6-4.7-18.7c-0.6-2.4-0.4-5.8-0.2-8.4c0.3-2.7,1.6-5.2,3.5-7.1
		c12.5-12.1,27-15.2,37.9-17c5.9-0.9,9.5,1.7,11.5,4.6c1.8,2.4,2.7,5.4,2.8,8.5l0.1,3.4c9.4-0.3,14,0.6,14.4,15
		c0.2,8.1-2.1,14.6-4,18.6c-0.1,0.3-0.2,0.6-0.4,1c2,0.5,1.6,4.7,0,12.3c-2,9.4-4.5,7.6-4.5,7.6c-1.1,5.9-3.4,11.6-6.5,16.7
		c-0.3,0.6-0.6,1.3-0.6,2.1l-0.2,10.2v3c0,0.6,0.4,1.1,1,1.2l3.9,0.5c0.3,0.1,0.5,0.1,0.7,0.2c4.8,0.6,15,1.9,18.9,3.5V24.4H55.7
		V147c4.9-1.9,19.1-3.5,21.4-3.8L79.6,142.6z"/>
	<path class="st3" d="M126.7,178.6h17.5v-8.3C138.9,173.5,132.8,176.4,126.7,178.6z"/>
	<path class="st4" d="M120.7,143.4c-0.6-0.1-1-0.6-1-1.2v-3l0.2-10.2c0-0.8,0.3-1.5,0.6-2.1c3.2-5.1,5.4-10.8,6.5-16.7
		c0,0,2.5,1.8,4.5-7.6c1.6-7.6,2-11.8,0-12.3c0.1-0.3,0.2-0.7,0.4-1c-1.5,3.1-2.8,4.8-2.8,4.8s-3.6-1.8-4.5-11.3
		c-0.9-9.5-3.4-11.6-3.4-11.6c-9-10.8-30.6,4.7-30.6,4.7c-9,5.5-14.1-3.5-14.1-3.5c0.6,9.8-4.1,21-4.1,21c-0.7-0.7-1.3-1.7-1.9-3
		c-3.4-0.9-3.3,3.3-1.4,12.2c2,9.2,4.5,7.6,4.5,7.6c1.2,6,3.4,11.8,6.7,16.9c0.3,0.5,0.5,1.1,0.5,1.6l-0.3,12.8c0,0.5-0.4,1-0.9,1.2
		l-2.5,0.6c0.2,0,0.3,0,0.3,0l2.2,7.5l-1.1-3.8c18.5,18.9,42,1.3,43.3,0.2l0.8-3.2c0-0.1,0.1-0.1,0.1-0.1c0.3,0,1.1,0.1,2.4,0.3
		c-0.2-0.1-0.5-0.1-0.7-0.2L120.7,143.4z"/>
	<polygon class="st4" points="85,170.2 87.4,178.6 87.4,178.6 84.3,167.5 	"/>
	<path class="st5" d="M55.7,178.6h31.7l-2.4-8.4l-0.7-2.7l-4.7-16.8l-2.2-7.5c0,0-0.1,0-0.3,0c-2.4,0.3-16.5,1.9-21.4,3.8V178.6z"/>
	<path class="st6" d="M76.5,72.2c0,0,5.2,9,14.1,3.5c0,0,21.5-15.4,30.6-4.7c0,0,2.5,2.2,3.4,11.6C125.4,92.2,129,94,129,94
		s1.3-1.7,2.8-4.8c2-4.1,4.2-10.6,4-18.6c-0.3-14.4-5-15.3-14.4-15l-0.1-3.4c-0.1-3.1-0.9-6.1-2.8-8.5c-2.1-2.8-5.7-5.5-11.5-4.6
		C96.2,41,81.7,44,69.2,56.1c-2,1.9-3.2,4.4-3.5,7.1c-0.3,2.6-0.4,5.9,0.2,8.4c0.1,0.1,1.8,12.3,4.7,18.7c0.6,1.3,1.2,2.4,1.9,3
		C72.4,93.3,77.1,82.1,76.5,72.2z"/>
	<path class="st5" d="M144.2,147.6c-3.9-1.6-14.2-3-18.9-3.5c-1.3-0.2-2.2-0.2-2.4-0.3c0,0-0.1,0-0.1,0.1l-0.8,3.2c0,0,0.1,0,0.1,0
		l-7.2,31.5h29.5V147.6z"/>
	<path class="st7" d="M121.9,147.1c-1.4,1-24.9,18.7-43.3-0.2l1.1,3.8l4.7,16.8l3.1,11.1h27.3L121.9,147.1
		C122,147.1,121.9,147.1,121.9,147.1z"/>
</g>
<g>
	<path class="st8" d="M61.5,43.5L61.5,43.5c-0.6,0-1-0.4-1-1V31.4c0-0.5,0.4-0.9,0.9-0.9h11.1c0.6,0,1,0.4,1,1v0c0,0.6-0.4,1-1,1
		h-10v10C62.5,43,62,43.5,61.5,43.5z"/>
	<path class="st8" d="M137.5,43.5L137.5,43.5c-0.6,0-1-0.4-1-1v-10h-10c-0.6,0-1-0.4-1-1v0c0-0.6,0.4-1,1-1h11.1
		c0.5,0,0.9,0.4,0.9,0.9v11.1C138.5,43,138,43.5,137.5,43.5z"/>
	<path class="st8" d="M72.5,172.5H61.3c-0.5,0-0.9-0.4-0.9-0.9v-11.1c0-0.6,0.4-1,1-1l0,0c0.6,0,1,0.4,1,1v10h10c0.6,0,1,0.4,1,1
		l0,0C73.5,172,73,172.5,72.5,172.5z"/>
	<path class="st8" d="M137.6,172.5h-11.1c-0.6,0-1-0.4-1-1l0,0c0-0.6,0.4-1,1-1h10v-10c0-0.6,0.4-1,1-1l0,0c0.6,0,1,0.4,1,1v11.1
		C138.5,172.1,138.1,172.5,137.6,172.5z"/>
</g>
<g>
	<circle class="st1" cx="157.9" cy="42.2" r="23.4"/>
	<path class="st9" d="M147.5,41.5l7.3,7.5l15.4-16c0.7-0.7,1.8-0.7,2.5,0l0,0c0.6,0.7,0.6,1.7,0,2.4l-17.1,17.7
		c-0.5,0.5-1.2,0.5-1.7,0l-8.9-9.2c-0.6-0.7-0.7-1.7,0-2.4l0,0C145.7,40.7,146.8,40.7,147.5,41.5z M156.8,65.6
		c13.8,0.6,25.1-10.6,24.4-24.4c-0.5-12-10.3-21.8-22.3-22.3c-13.8-0.6-25.1,10.6-24.4,24.4C135,55.2,144.8,65,156.8,65.6z"/>
</g>
</svg>
