<?xml version="1.0" encoding="utf-8"?>
<!-- Generator: Adobe Illustrator 22.0.0, SVG Export Plug-In . SVG Version: 6.00 Build 0)  -->
<svg version="1.1" id="Ebene_1" xmlns="http://www.w3.org/2000/svg" xmlns:xlink="http://www.w3.org/1999/xlink" x="0px" y="0px"
	 viewBox="0 0 398 425" style="enable-background:new 0 0 398 425;" xml:space="preserve">
<style type="text/css">
	.st0{fill:#FFFFFF;}
	.st1{fill:#ED7532;}
	.st2{fill:#F39719;}
	.st3{fill:#D0CFCF;}
	.st4{fill:#F0F1F1;}
	.st5{fill:#3CA462;}
	.st6{fill:#39A462;}
</style>
<title>illustration_Aktivierungscode-Post</title>
<path class="st0" d="M199,14.3C89.5,14.3,0.8,103,0.8,212.5S89.5,410.7,199,410.7S397.2,322,397.2,212.5S308.5,14.3,199,14.3z
	 M356.9,262h-28.7c-1.6,14-14.3,24.1-28.3,22.4c-11.8-1.4-21.1-10.7-22.4-22.4H120.7c-1.6,14-14.3,24.1-28.3,22.4
	c-11.8-1.4-21.1-10.7-22.4-22.4H45.6c-2.4,0-4.3-1.9-4.3-4.4l0,0v-9.1c0-2.4,1.9-4.4,4.3-4.4h0h5.5v-95c0-4.8,3.9-8.7,8.7-8.7
	c0,0,0,0,0,0h231.5c12.2,0,23.6,6.2,30.3,16.4l25.8,39.7c3.9,6,5.9,12.9,5.9,20v27.6h3.5c2.4,0,4.4,1.9,4.4,4.4v9.1
	C361.2,260.1,359.3,262,356.9,262z"/>
<polygon class="st1" points="119,168.6 108.7,174.3 118.9,180.1 "/>
<polygon class="st1" points="191.7,174.8 181.5,169 181.4,180.5 "/>
<polygon class="st1" points="150.4,151.3 136.7,158.8 163.9,159 "/>
<path class="st0" d="M150.1,197.8l31.3-17.3l0.1-11.5l0.1-9.9l-17.6-0.1l-27.2-0.2l-17.6-0.1l-0.1,9.9l0,11.5L150.1,197.8z
	 M169.9,168l-0.4,13.1h-2.2L167,168H169.9z M166.9,183.3h2.9v2.9h-2.9V183.3z M128.5,168.3l34.9,0.2v1.8l-34.9-0.3L128.5,168.3z
	 M128.5,175l34.9,0.2v1.7l-34.9-0.2V175z M128.5,181.8l23.3,0.1v1.8l-23.3-0.1L128.5,181.8z"/>
<path class="st2" d="M109.5,220.2L109.5,220.2l0.2,0.1l0,0c0.1,0.1,0.3,0.2,0.5,0.3l0,0c0.2,0.1,0.3,0.1,0.5,0.2l0,0
	c0.2,0,0.4,0.1,0.5,0.1h1.6l75.8,0.4c0.2,0,0.4,0,0.5-0.1l0,0c0.2,0,0.3-0.1,0.5-0.2l0,0c0.2-0.1,0.3-0.2,0.5-0.2l0,0l0.2-0.1l0,0
	c0.7-0.5,1.1-1.3,1.1-2.2l0.3-43.7l0,0l-10.3,5.7L150,197.8l-31-17.7l-10.2-5.8l0,0l-0.3,43.7C108.4,218.9,108.8,219.7,109.5,220.2z
	"/>
<path class="st3" d="M240.1,149.2v95h41.8c8.2-11.5,24.1-14.2,35.7-6.1c1.5,1.1,2.9,2.3,4.1,3.7c0.7,0.8,1.3,1.5,1.9,2.4h29.8v-10.8
	h-18.7c-1.2,0-2.2-1-2.2-2.2v-7.4c0-1.2,1-2.2,2.2-2.2c0,0,0,0,0,0h18.7v-5c0-7.1-2.1-14-5.9-20l-25.8-39.7
	c-6.7-10.2-18-16.4-30.3-16.4h-42.6C244,140.5,240.1,144.4,240.1,149.2C240.1,149.2,240.1,149.2,240.1,149.2z M260.6,151.3h28.7
	c7.4,0,14.4,3.8,18.4,10.1l22.5,35.3c1.2,1.9,0.7,4.5-1.3,5.8c-0.7,0.4-1.4,0.7-2.2,0.7h-66.1V151.3z"/>
<path class="st4" d="M332.5,223.8v7.4c0,1.2,1,2.2,2.2,2.2h18.7v-11.8h-18.7C333.5,221.6,332.5,222.6,332.5,223.8
	C332.5,223.8,332.5,223.8,332.5,223.8z"/>
<path class="st3" d="M72,231.2v-7.4c0-1.2-1-2.2-2.2-2.2c0,0,0,0,0,0H51.1v11.8h18.7C71,233.4,72,232.4,72,231.2z"/>
<polygon class="st5" points="169.5,181.1 169.9,168 167,167.9 167.2,181.1 "/>
<rect x="166.9" y="183.3" transform="matrix(5.934021e-03 -1 1 5.934021e-03 -17.4194 352.0256)" class="st5" width="2.9" height="2.9"/>
<path class="st5" d="M356.9,244.2h-33.3c-0.6-0.8-1.2-1.6-1.9-2.4c-9.5-10.5-25.7-11.2-36.1-1.8c-1.4,1.2-2.6,2.6-3.7,4.1H116.1
	c-8.2-11.5-24.1-14.2-35.7-6c-2.3,1.7-4.4,3.7-6,6H45.6c-2.4,0-4.3,1.9-4.3,4.4l0,0v9.1c0,2.4,1.9,4.4,4.3,4.4c0,0,0,0,0.1,0h24.3
	c1.6,14,14.3,24.1,28.3,22.4c11.8-1.4,21.1-10.7,22.4-22.4h156.7c1.6,14,14.3,24.1,28.3,22.4c11.8-1.4,21.1-10.7,22.4-22.4h28.7
	c2.4,0,4.4-1.9,4.4-4.4v-9.1C361.3,246.2,359.3,244.2,356.9,244.2C356.9,244.2,356.9,244.2,356.9,244.2z M111.9,262
	c-1.6,9.2-10.4,15.3-19.6,13.7c-7-1.2-12.5-6.7-13.7-13.7c-0.2-1-0.3-2-0.3-3c0.2-9.4,8-16.8,17.3-16.5c9,0.2,16.3,7.5,16.5,16.5
	C112.2,260,112.1,261,111.9,262z M319.4,262c-1.6,9.2-10.4,15.3-19.6,13.7c-7-1.2-12.5-6.7-13.7-13.7c-0.2-1-0.3-2-0.3-3
	c0-9.4,7.6-16.9,16.9-16.9s16.9,7.6,16.9,16.9l0,0C319.7,260,319.6,261,319.4,262z"/>
<path class="st4" d="M95.3,233.4c8.3,0,16.1,4,20.8,10.8h124v-95c0-4.8,3.9-8.7,8.7-8.7c0,0,0,0,0,0h-189c-4.8,0-8.7,3.9-8.7,8.7
	c0,0,0,0,0,0v72.4h18.7c1.2,0,2.2,1,2.2,2.2c0,0,0,0,0,0v7.4c0,1.2-1,2.2-2.2,2.2H51.1v10.8h23.3C79.2,237.4,87,233.4,95.3,233.4z
	 M108.7,174.3L108.7,174.3l10.3-5.7l0.1-9.9l17.6,0.1l13.7-7.6l13.6,7.7l17.6,0.1l-0.1,9.9l10.2,5.8l0,0l-0.3,43.7
	c0,0.9-0.4,1.7-1.1,2.2l0,0l-0.2,0.1l0,0c-0.1,0.1-0.3,0.2-0.5,0.2l0,0c-0.2,0.1-0.3,0.1-0.5,0.2l0,0c-0.2,0-0.4,0.1-0.5,0.1
	l-75.8-0.4h-1.6c-0.2,0-0.4,0-0.5-0.1l0,0c-0.2,0-0.3-0.1-0.5-0.2l0,0c-0.2-0.1-0.3-0.2-0.5-0.3l0,0l-0.2-0.1l0,0
	c-0.7-0.5-1.1-1.4-1.1-2.2L108.7,174.3z"/>
<path class="st0" d="M326.7,203.1c2.3,0,4.1-1.9,4.1-4.2c0-0.8-0.2-1.5-0.7-2.2l-22.6-35.3c-4-6.3-10.9-10.1-18.4-10.1h-28.7v51.9
	H326.7L326.7,203.1z"/>
<path class="st4" d="M311,244.2c-8.2-4.5-18.5-1.6-23,6.6c-1.4,2.5-2.1,5.4-2.1,8.2c0,1,0.1,2,0.3,3c1.6,9.2,10.4,15.3,19.6,13.7
	c7-1.2,12.5-6.7,13.7-13.7c0.2-1,0.3-2,0.3-3C319.7,252.8,316.4,247.2,311,244.2z"/>
<path class="st4" d="M103.5,244.2c-8.2-4.6-18.5-1.6-23,6.6c-1.4,2.5-2.1,5.4-2.1,8.3c0,1,0.1,2,0.3,3c1.6,9.2,10.4,15.3,19.6,13.7
	c7-1.2,12.5-6.7,13.7-13.7c0.2-1,0.3-2,0.3-3C112.2,252.8,108.9,247.2,103.5,244.2z"/>
<rect x="128.4" y="181.8" class="st6" width="23.4" height="1.9"/>
<rect x="128.4" y="175.1" class="st6" width="35" height="1.9"/>
<rect x="128.4" y="168.3" class="st6" width="35" height="1.9"/>
</svg>
