<svg id="Layer_1" data-name="Layer 1" xmlns="http://www.w3.org/2000/svg" xmlns:xlink="http://www.w3.org/1999/xlink" viewBox="0 0 192 192"><defs><style>.cls-1,.cls-7{fill:#fff;}.cls-1,.cls-3,.cls-5,.cls-6{fill-rule:evenodd;}.cls-2{mask:url(#mask);}.cls-3{fill:#efefef;}.cls-4{mask:url(#mask-2-2);}.cls-5{fill:#9f0020;}.cls-6{fill:#c03;}</style><mask id="mask" x="0" y="0" width="192" height="192" maskUnits="userSpaceOnUse"><g transform="translate(0 0)"><g id="mask-2"><polygon id="path-1" class="cls-1" points="0 0 192 0 192 192 0 192 0 0"/></g></g></mask><mask id="mask-2-2" x="94.58" y="28.31" width="54.33" height="136.69" maskUnits="userSpaceOnUse"><g transform="translate(0 0)"><g id="mask-4"><polygon id="path-3" class="cls-1" points="94.58 28.31 148.91 28.31 148.91 165 94.58 165 94.58 28.31"/></g></g></mask></defs><g class="cls-2"><path id="Fill-1" class="cls-3" d="M0,96a96,96,0,1,1,96,96A96,96,0,0,1,0,96" transform="translate(0 0)"/></g><g class="cls-4"><path id="Fill-1-2" data-name="Fill-1" class="cls-5" d="M94.59,113.69c0,27.54,0,51.13.34,51.29h.17a5.82,5.82,0,0,0,.59,0H96l.52-.05.28,0,.54-.12.25-.06a7.41,7.41,0,0,0,.75-.26l9.87-4.09a65.46,65.46,0,0,0,40.73-60.32V41a4,4,0,0,0-3.32-3.91L96.27,28.37a4.29,4.29,0,0,0-1.43,0s-.18,38.26-.24,74.29Z" transform="translate(0 0)"/></g><path id="Fill-4" class="cls-6" d="M93.22,164.46a7.48,7.48,0,0,0,2.12.52c-.3-.16-.36-23.75-.34-51.29v-11c.06-36,.24-74.28.24-74.28L46.3,37.1A4,4,0,0,0,43,41v59a65.46,65.46,0,0,0,40.43,60.32Z" transform="translate(0 0)"/><g id="Group"><rect id="Rectangle" class="cls-7" x="90.5" y="55" width="9" height="72" transform="translate(-36.52 93.83) rotate(-45)"/><polygon id="Rectangle-Copy" class="cls-1" points="123.64 68.73 72.73 119.64 66.36 113.27 117.27 62.36 123.64 68.73"/></g></svg>