<svg enable-background="new 0 0 192 192" viewBox="0 0 192 192" xmlns="http://www.w3.org/2000/svg" xmlns:xlink="http://www.w3.org/1999/xlink"><mask id="a" height="192" maskUnits="userSpaceOnUse" width="192" x="0" y="0"><path clip-rule="evenodd" d="m0 0h192v192h-192z" fill="#fff" fill-rule="evenodd"/></mask><g clip-rule="evenodd" fill-rule="evenodd"><path d="m0 96c0-53 43-96 96-96s96 43 96 96-43 96-96 96-96-43-96-96" fill="#efefef" mask="url(#a)"/><path d="m103 35.7 51.5 93.4c2.1 3.9.7 8.7-3.1 10.9-1.2.7-2.5 1-3.9 1h-103c-4.4 0-8-3.6-8-8 0-1.3.3-2.7 1-3.9l51.5-93.4c2.1-3.9 7-5.3 10.9-3.1 1.3.7 2.4 1.8 3.1 3.1z" fill="#f90"/><path d="m99.9 32.6c1.3.7 2.4 1.8 3.1 3.1l51.5 93.4c2.1 3.9.7 8.7-3.1 10.9-1.2.7-2.5 1-3.9 1h-51.5v-109.4c1.3 0 2.6.3 3.9 1z" fill="#d77600"/><g fill="#fff"><path d="m101.5 63.5-1.8 45h-8.4l-1.8-45z"/><path d="m90 116h12v12h-12z"/></g></g></svg>